<svg xmlns="http://www.w3.org/2000/svg" width="72" height="72" viewBox="0 0 72 72">
    <defs>
        <style>
            .prefix__cls-2{fill:#343434}.prefix__cls-5{opacity:.6}
        </style>
    </defs>
    <g id="prefix__Group_3805" data-name="Group 3805" transform="translate(-531 -734)">
        <g id="prefix__Rectangle_5720" fill="#fff" stroke="#eecf09" stroke-width="2px" data-name="Rectangle 5720" transform="translate(531 734)">
            <rect width="72" height="72" stroke="none" rx="8"/>
            <rect width="70" height="70" x="1" y="1" fill="none" rx="7"/>
        </g>
        <g id="prefix__stock_expand" data-name="stock expand" transform="translate(543.727 746.483)">
            <path id="prefix__Path_53406" d="M27.249 33.143a.649.649 0 0 0 .917 0l4.686-4.686a3.2 3.2 0 1 0-4.522-4.522l-.623.621-.623-.623a3.2 3.2 0 1 0-4.522 4.522zm-3.769-8.291a1.9 1.9 0 0 1 2.687 0l1.082 1.082a.649.649 0 0 0 .917 0l1.082-1.082a1.9 1.9 0 0 1 2.687 2.688l-4.228 4.227-4.227-4.227a1.9 1.9 0 0 1 0-2.688z" class="prefix__cls-2" data-name="Path 53406" transform="translate(-4.434 -5.969)"/>
            <path id="prefix__Path_53407" d="M37.413 18.5a2.6 2.6 0 0 0-3.621-3.144l-.138.069V6.649A.649.649 0 0 0 33.005 6H13.542a.649.649 0 0 0-.649.649v5.242A4.545 4.545 0 0 0 9 16.381V38.44h2.6a7.129 7.129 0 0 0 1.3-.124v2.07a.649.649 0 0 0 .649.649h19.456a.649.649 0 0 0 .649-.649v-6.123c.042-.019.086-.026.13-.047l2.316-1.161a2.583 2.583 0 0 0 .237-4.5 2.571 2.571 0 0 0 0-4.352 2.568 2.568 0 0 0 .928-3.334 2.573 2.573 0 0 0-.928-1.017 2.57 2.57 0 0 0 1.076-1.352zM14.19 7.3h18.167v3.89H14.19zm0 5.19h18.167v3.586l-.886.442a2.582 2.582 0 0 0-.237 4.5 2.572 2.572 0 0 0 0 4.352 2.571 2.571 0 0 0 0 4.352 2.514 2.514 0 0 0-1.2 2.232H18.7c.019-.214.033-.429.033-.649v-1.948a7.1 7.1 0 0 0-4.542-6.65zM11.6 37.142h-1.3V16.381a3.249 3.249 0 0 1 2.6-3.179v10.44l.454.143a5.814 5.814 0 0 1 4.087 5.572V31.3a5.846 5.846 0 0 1-5.841 5.842zm20.761 2.6H14.19v-1.798a7.161 7.161 0 0 0 4.265-4.695H30.41v-.021a2.493 2.493 0 0 0 1.946 1.241zm3.818-8.591a1.29 1.29 0 0 1-.649.75l-2.33 1.154a1.3 1.3 0 1 1-1.16-2.321l2.328-1.159a1.3 1.3 0 0 1 1.81 1.572zm0-4.352a1.29 1.29 0 0 1-.649.75L33.2 28.7a1.3 1.3 0 1 1-1.159-2.322l2.323-1.159a1.3 1.3 0 0 1 1.811 1.572zm0-4.353a1.29 1.29 0 0 1-.649.75l-2.33 1.155a1.3 1.3 0 1 1-1.159-2.322l1.739-.869.584-.291a1.3 1.3 0 0 1 1.738.584 1.29 1.29 0 0 1 .075.989zm0-4.352a1.287 1.287 0 0 1-.649.75l-1.737.867h-.006L33.2 20a1.3 1.3 0 0 1-1.15-2.32l2.322-1.159a1.3 1.3 0 0 1 1.813 1.571z" class="prefix__cls-2" data-name="Path 53407"/>
            <path id="prefix__Rectangle_5998" d="M0 0H4V1H0z" class="prefix__cls-2" data-name="Rectangle 5998" transform="translate(21.274 8.517)"/>
            <path id="prefix__Path_53408" d="M29.946 50a1.946 1.946 0 1 0 1.946 1.946A1.946 1.946 0 0 0 29.946 50zm0 2.6a.649.649 0 1 1 .649-.649.649.649 0 0 1-.649.649z" class="prefix__cls-2" data-name="Path 53408" transform="translate(-6.673 -15.453)"/>
        </g>
        <g id="prefix__Group_4276" data-name="Group 4276" transform="rotate(-90 669.753 134.352)" style="isolation:isolate">
            <g id="prefix__Group_3765" data-name="Group 3765" transform="translate(0 54.787)">
                <path id="prefix__Path_53060" fill="#ffea65" d="M5.173 10.848v-.055A6.315 6.315 0 0 0 0 4.9V0a11.173 11.173 0 0 1 10.03 10.792v.055z" data-name="Path 53060"/>
            </g>
            <g id="prefix__Group_3767" class="prefix__cls-5" data-name="Group 3767" transform="translate(55.942 53.885)">
                <path id="prefix__Path_53062" fill="#5dc1bd" d="M6.634 7.667L0 3.833 6.634 0z" data-name="Path 53062"/>
            </g>
            <g id="prefix__Group_3768" class="prefix__cls-5" data-name="Group 3768" transform="translate(44.649)">
                <circle id="prefix__Ellipse_2700" cx="2.324" cy="2.324" r="2.324" fill="#00ace7" data-name="Ellipse 2700"/>
            </g>
        </g>
    </g>
</svg>
